<?xml version="1.0" encoding="utf-8"?>
<!-- Svg Vector Icons : http://www.onlinewebfonts.com/icon -->
<!DOCTYPE svg PUBLIC "-//W3C//DTD SVG 1.1//EN" "http://www.w3.org/Graphics/SVG/1.1/DTD/svg11.dtd">
<svg fill="#4D4D4D" version="1.1" xmlns="http://www.w3.org/2000/svg" xmlns:xlink="http://www.w3.org/1999/xlink" x="0px" y="0px" width="50" viewBox="0 0 256 256" enable-background="new 0 0 256 256" xml:space="preserve">
<metadata> Svg Vector Icons : http://www.onlinewebfonts.com/icon </metadata>
<g><g><g><path d="M242.3,11.5c2.9,2.1,4.1,4.9,3.6,8.4l-33.7,202.3c-0.4,2.6-1.9,4.5-4.2,5.9c-1.2,0.7-2.6,1.1-4.1,1.1c-1,0-2-0.2-3.2-0.7l-59.6-24.4L109.2,243c-1.6,2-3.7,3-6.5,3c-1.1,0-2.1-0.2-2.9-0.5c-1.7-0.6-3-1.6-4-3.1c-1-1.4-1.5-3.1-1.5-4.8v-46L208.1,52.1L67.3,174l-52-21.3c-3.3-1.2-5-3.6-5.3-7.2c-0.2-3.5,1.2-6.1,4.2-7.8L233.4,11.2c1.3-0.8,2.7-1.2,4.2-1.2C239.3,10,240.9,10.5,242.3,11.5z"/></g></g></g>
</svg>